<svg width="1440" height="457" viewBox="0 0 1440 457" fill="none" xmlns="http://www.w3.org/2000/svg">
<path d="M-1.0498 455.843H1444.01" stroke="#E1E7F2"/>
<path d="M-1.0498 455.843H299.081" stroke="#E1E7F2"/>
<path d="M258.166 290.56C257.427 290.56 256.827 289.961 256.826 289.221V289.221C256.855 283.008 257.444 278.064 258.591 274.391C259.774 270.717 261.445 267.765 263.605 265.534C265.765 263.268 268.396 261.191 271.498 259.303C273.624 257.998 275.524 256.573 277.196 255.029C278.903 253.449 280.244 251.699 281.219 249.776C282.194 247.819 282.68 245.639 282.678 243.236C282.676 240.524 282.028 238.172 280.736 236.181C279.444 234.19 277.699 232.645 275.501 231.547C273.338 230.448 270.914 229.899 268.229 229.899C265.753 229.899 263.399 230.431 261.169 231.495C258.972 232.525 257.143 234.104 255.68 236.233V236.233C253.014 240.142 249.574 244.215 244.84 244.215H244.346C239.038 244.215 234.559 239.738 236.153 234.677C236.943 232.166 238.045 229.887 239.457 227.839C242.522 223.445 246.564 220.149 251.584 217.952C256.638 215.755 262.217 214.656 268.32 214.656C274.981 214.656 280.84 215.806 285.899 218.106C290.992 220.407 294.953 223.685 297.782 227.942C300.645 232.165 302.079 237.177 302.084 242.979C302.088 246.892 301.446 250.394 300.158 253.484C298.906 256.573 297.112 259.32 294.778 261.723C292.444 264.126 289.673 266.272 286.466 268.16C283.643 269.876 281.326 271.662 279.514 273.515C277.737 275.369 276.414 277.549 275.544 280.055C274.71 282.527 274.277 285.582 274.245 289.221V289.221C274.246 289.961 273.647 290.56 272.907 290.56H258.166ZM265.958 322.693C262.819 322.693 260.115 321.595 257.847 319.398C255.578 317.201 254.442 314.523 254.44 311.364C254.437 308.275 255.568 305.631 257.833 303.434C260.097 301.237 262.799 300.138 265.938 300.138C269.041 300.138 271.727 301.237 273.996 303.434C276.3 305.631 277.453 308.275 277.456 311.364C277.457 313.459 276.919 315.364 275.839 317.08C274.794 318.797 273.401 320.17 271.658 321.2C269.95 322.196 268.05 322.693 265.958 322.693Z" fill="#EAF7FF"/>
<path d="M265.714 315.87V454.766" stroke="#EEF1F7" stroke-width="2"/>
<path d="M113.463 335.271C112.925 335.271 112.489 334.835 112.488 334.297V334.297C112.509 329.775 112.938 326.178 113.773 323.505C114.633 320.832 115.849 318.683 117.421 317.059C118.993 315.41 120.908 313.899 123.165 312.525C124.712 311.576 126.095 310.539 127.312 309.415C128.554 308.265 129.53 306.991 130.239 305.592C130.949 304.168 131.303 302.582 131.301 300.833C131.299 298.859 130.828 297.148 129.888 295.699C128.948 294.25 127.678 293.126 126.078 292.327C124.504 291.527 122.74 291.127 120.786 291.127C118.984 291.127 117.272 291.515 115.648 292.289C114.05 293.039 112.719 294.188 111.654 295.737V295.737C109.714 298.582 107.211 301.545 103.766 301.545H103.406C99.5439 301.545 96.2841 298.287 97.444 294.604C98.0193 292.777 98.8208 291.119 99.8485 289.628C102.079 286.431 105.02 284.032 108.673 282.433C112.352 280.835 116.411 280.035 120.852 280.035C125.699 280.035 129.964 280.872 133.645 282.546C137.351 284.22 140.234 286.606 142.292 289.703C144.376 292.776 145.42 296.424 145.423 300.646C145.426 303.494 144.959 306.042 144.022 308.29C143.11 310.539 141.805 312.537 140.106 314.286C138.407 316.035 136.391 317.596 134.058 318.97C132.003 320.22 130.317 321.519 128.999 322.868C127.706 324.217 126.743 325.803 126.11 327.627C125.502 329.426 125.187 331.649 125.164 334.297V334.297C125.165 334.835 124.729 335.271 124.191 335.271H113.463ZM119.133 358.655C116.849 358.655 114.882 357.856 113.231 356.257C111.58 354.658 110.754 352.709 110.751 350.411C110.749 348.162 111.572 346.239 113.221 344.64C114.869 343.041 116.835 342.242 119.119 342.242C121.377 342.242 123.332 343.041 124.983 344.64C126.659 346.239 127.498 348.162 127.5 350.411C127.502 351.935 127.11 353.321 126.324 354.57C125.564 355.82 124.55 356.819 123.282 357.568C122.039 358.293 120.656 358.655 119.133 358.655Z" fill="#EAF7FF"/>
<path d="M118.956 353.689V454.766" stroke="#EEF1F7" stroke-width="2"/>
<path d="M170.086 205.898C169.012 205.898 168.14 205.027 168.14 203.953V203.953C168.182 194.927 169.037 187.747 170.704 182.411C172.421 177.075 174.849 172.786 177.987 169.545C181.124 166.254 184.946 163.237 189.452 160.494C192.54 158.599 195.299 156.53 197.729 154.286C200.209 151.992 202.157 149.449 203.572 146.656C204.988 143.814 205.695 140.647 205.691 137.156C205.688 133.217 204.748 129.801 202.871 126.909C200.994 124.016 198.459 121.772 195.267 120.177C192.125 118.581 188.603 117.783 184.703 117.783C181.106 117.783 177.688 118.556 174.447 120.102C171.257 121.598 168.6 123.892 166.475 126.984C166.308 127.228 166.147 127.478 165.992 127.734C162.685 133.181 157.997 138.578 151.621 138.578H148.266C141.513 138.578 135.861 132.916 137.621 126.398C138.786 122.084 140.549 118.215 142.91 114.791C147.362 108.408 153.234 103.621 160.525 100.429C167.867 97.2378 175.971 95.6421 184.835 95.6421C194.51 95.6421 203.022 97.3126 210.37 100.654C217.768 103.995 223.522 108.757 227.631 114.941C231.79 121.074 233.873 128.355 233.881 136.782C233.886 142.467 232.953 147.554 231.083 152.042C229.263 156.53 226.658 160.519 223.267 164.01C219.877 167.501 215.852 170.617 211.194 173.36C207.094 175.853 203.727 178.446 201.096 181.139C198.515 183.832 196.593 186.999 195.329 190.639C194.117 194.229 193.488 198.667 193.442 203.953V203.953C193.443 205.027 192.573 205.898 191.499 205.898H170.086ZM181.404 252.574C176.845 252.574 172.918 250.978 169.622 247.786C166.327 244.595 164.677 240.705 164.673 236.118C164.669 231.63 166.312 227.79 169.602 224.598C172.891 221.407 176.816 219.811 181.375 219.811C185.883 219.811 189.785 221.407 193.08 224.598C196.426 227.79 198.101 231.63 198.105 236.118C198.108 239.159 197.325 241.927 195.757 244.42C194.24 246.914 192.215 248.909 189.684 250.405C187.203 251.851 184.443 252.574 181.404 252.574Z" fill="#EAF7FF"/>
<path d="M182.513 244.826L182.513 454.766" stroke="#EEF1F7" stroke-width="2"/>
<mask id="path-9-outside-1_6080_10865" maskUnits="userSpaceOnUse" x="4.77576" y="0.489746" width="303" height="384" fill="black">
<rect fill="white" x="4.77576" y="0.489746" width="303" height="384"/>
<path d="M53.6714 157.054C52.1654 157.053 50.946 155.83 50.9478 154.324C51.0324 141.669 52.2326 131.603 54.5486 124.124C56.9344 116.646 60.2974 110.637 64.6376 106.097C68.9779 101.487 74.2615 97.2635 80.4887 93.4252C84.7567 90.7733 88.5706 87.8761 91.9303 84.7337C95.36 81.5214 98.056 77.9587 100.018 74.0456C101.981 70.0626 102.965 65.6239 102.97 60.7297C102.977 55.2062 101.689 50.4153 99.1064 46.3571C96.5241 42.2988 93.0319 39.1485 88.6296 36.906C84.2973 34.6636 79.4393 33.5393 74.0557 33.5331C69.0915 33.5273 64.3708 34.6056 59.8935 36.7679C55.4863 38.8603 51.8119 42.0723 48.8703 46.4038C47.8214 47.9604 46.9402 49.6712 46.2268 51.5361C43.9473 57.4947 39.0282 62.6483 32.6485 62.6409L19.011 62.6251C12.2599 62.6173 6.7083 57.0028 7.95069 50.3671C9.45274 42.3444 12.262 35.3125 16.3783 29.2712C22.5415 20.3289 30.6597 13.6262 40.733 9.16306C50.8763 4.70006 62.0657 2.47565 74.3013 2.48981C87.6556 2.50527 99.3991 4.86112 109.532 9.55735C119.734 14.2537 127.662 20.94 133.316 29.6164C139.039 38.2229 141.894 48.4342 141.88 60.2503C141.871 68.2209 140.569 75.3511 137.975 81.6407C135.451 87.9304 131.843 93.5196 127.153 98.4084C122.463 103.297 116.899 107.661 110.463 111.499C104.795 114.988 100.141 118.618 96.5013 122.39C92.9311 126.161 90.2691 130.598 88.5153 135.7C86.8314 140.732 85.9502 146.954 85.8717 154.365C85.87 155.871 84.6478 157.09 83.1418 157.089L53.6714 157.054ZM69.1174 222.515C62.8248 222.508 57.4088 220.265 52.8693 215.785C48.3298 211.305 46.0638 205.848 46.0713 199.416C46.0785 193.123 48.3571 187.742 52.9069 183.273C57.4568 178.803 62.878 176.572 69.1706 176.579C75.3933 176.587 80.7744 178.83 85.3138 183.31C89.9232 187.79 92.2243 193.177 92.217 199.469C92.2121 203.734 91.1238 207.613 88.9523 211.107C86.8508 214.6 84.0508 217.394 80.5525 219.487C77.1242 221.511 73.3125 222.52 69.1174 222.515Z"/>
<path d="M41.941 349.909C41.214 349.908 40.6254 349.318 40.6262 348.591C40.667 342.482 41.2464 337.623 42.3644 334.013C43.5161 330.403 45.1395 327.502 47.2345 325.311C49.3296 323.086 51.8802 321.047 54.8861 319.194C56.9464 317.914 58.7874 316.515 60.4092 314.998C62.0648 313.448 63.3661 311.728 64.3133 309.839C65.2606 307.916 65.7356 305.774 65.7383 303.411C65.7414 300.745 65.1197 298.432 63.8732 296.473C62.6267 294.514 60.9409 292.994 58.8159 291.911C56.7246 290.829 54.3796 290.286 51.7808 290.283C49.3845 290.28 47.1057 290.801 44.9445 291.844C42.817 292.854 41.0433 294.405 39.6234 296.496C37.0275 300.348 33.6454 304.336 28.9999 304.33L28.6321 304.33C23.4979 304.324 19.1791 299.995 20.6833 295.087C21.4565 292.563 22.5418 290.276 23.939 288.226C26.914 283.909 30.8328 280.673 35.6954 278.519C40.5917 276.365 45.993 275.291 51.8994 275.298C58.3457 275.305 64.0145 276.442 68.9057 278.709C73.8307 280.976 77.6576 284.204 80.3866 288.392C83.1493 292.547 84.5274 297.476 84.5208 303.18C84.5163 307.027 83.8879 310.469 82.6356 313.505C81.4171 316.541 79.6758 319.239 77.4118 321.599C75.1478 323.959 72.4622 326.065 69.355 327.918C66.6192 329.603 64.3728 331.355 62.6157 333.175C60.8923 334.996 59.6073 337.138 58.7607 339.6C57.9478 342.03 57.5225 345.033 57.4846 348.61C57.4838 349.337 56.8938 349.926 56.1668 349.925L41.941 349.909ZM49.397 381.508C46.3595 381.504 43.745 380.421 41.5538 378.259C39.3625 376.096 38.2686 373.462 38.2722 370.357C38.2758 367.32 39.3757 364.722 41.5719 362.565C43.7682 360.407 46.3851 359.33 49.4227 359.334C52.4265 359.337 55.024 360.42 57.2153 362.583C59.4403 364.745 60.5511 367.346 60.5476 370.383C60.5452 372.442 60.0199 374.314 58.9717 376.001C57.9572 377.687 56.6056 379.036 54.9169 380.046C53.262 381.023 51.422 381.51 49.397 381.508Z"/>
<path d="M276.417 143.712C275.918 143.712 275.514 143.307 275.514 142.808C275.542 138.615 275.94 135.28 276.707 132.803C277.497 130.325 278.612 128.334 280.049 126.831C281.487 125.303 283.238 123.904 285.301 122.633C286.715 121.754 287.978 120.794 289.091 119.753C290.227 118.689 291.121 117.509 291.771 116.212C292.421 114.893 292.747 113.422 292.749 111.801C292.751 109.971 292.324 108.384 291.469 107.039C290.613 105.695 289.456 104.651 287.998 103.909C286.562 103.166 284.953 102.793 283.17 102.791C281.525 102.789 279.961 103.146 278.478 103.863C277.018 104.556 275.8 105.62 274.826 107.055C273.044 109.699 270.723 112.436 267.535 112.432L267.283 112.432C263.759 112.428 260.795 109.457 261.827 106.088C262.358 104.356 263.103 102.786 264.062 101.379C266.104 98.4167 268.793 96.1962 272.13 94.7176C275.491 93.2391 279.197 92.5022 283.251 92.5069C287.675 92.512 291.565 93.2924 294.922 94.8482C298.302 96.4041 300.929 98.6192 302.802 101.494C304.698 104.345 305.643 107.728 305.639 111.642C305.636 114.283 305.205 116.645 304.345 118.729C303.509 120.812 302.314 122.664 300.76 124.283C299.206 125.903 297.363 127.349 295.231 128.62C293.353 129.776 291.811 130.979 290.605 132.228C289.423 133.478 288.541 134.947 287.96 136.638C287.402 138.305 287.11 140.366 287.084 142.821C287.083 143.32 286.679 143.724 286.18 143.723L276.417 143.712ZM281.534 165.398C279.449 165.396 277.655 164.653 276.151 163.169C274.647 161.684 273.896 159.877 273.899 157.746C273.901 155.661 274.656 153.879 276.163 152.398C277.671 150.917 279.467 150.178 281.551 150.18C283.613 150.183 285.395 150.926 286.899 152.41C288.426 153.894 289.189 155.679 289.186 157.764C289.185 159.176 288.824 160.462 288.105 161.619C287.408 162.776 286.481 163.702 285.322 164.395C284.186 165.066 282.923 165.4 281.534 165.398Z"/>
</mask>
<path d="M53.6714 157.054C52.1654 157.053 50.946 155.83 50.9478 154.324C51.0324 141.669 52.2326 131.603 54.5486 124.124C56.9344 116.646 60.2974 110.637 64.6376 106.097C68.9779 101.487 74.2615 97.2635 80.4887 93.4252C84.7567 90.7733 88.5706 87.8761 91.9303 84.7337C95.36 81.5214 98.056 77.9587 100.018 74.0456C101.981 70.0626 102.965 65.6239 102.97 60.7297C102.977 55.2062 101.689 50.4153 99.1064 46.3571C96.5241 42.2988 93.0319 39.1485 88.6296 36.906C84.2973 34.6636 79.4393 33.5393 74.0557 33.5331C69.0915 33.5273 64.3708 34.6056 59.8935 36.7679C55.4863 38.8603 51.8119 42.0723 48.8703 46.4038C47.8214 47.9604 46.9402 49.6712 46.2268 51.5361C43.9473 57.4947 39.0282 62.6483 32.6485 62.6409L19.011 62.6251C12.2599 62.6173 6.7083 57.0028 7.95069 50.3671C9.45274 42.3444 12.262 35.3125 16.3783 29.2712C22.5415 20.3289 30.6597 13.6262 40.733 9.16306C50.8763 4.70006 62.0657 2.47565 74.3013 2.48981C87.6556 2.50527 99.3991 4.86112 109.532 9.55735C119.734 14.2537 127.662 20.94 133.316 29.6164C139.039 38.2229 141.894 48.4342 141.88 60.2503C141.871 68.2209 140.569 75.3511 137.975 81.6407C135.451 87.9304 131.843 93.5196 127.153 98.4084C122.463 103.297 116.899 107.661 110.463 111.499C104.795 114.988 100.141 118.618 96.5013 122.39C92.9311 126.161 90.2691 130.598 88.5153 135.7C86.8314 140.732 85.9502 146.954 85.8717 154.365C85.87 155.871 84.6478 157.09 83.1418 157.089L53.6714 157.054ZM69.1174 222.515C62.8248 222.508 57.4088 220.265 52.8693 215.785C48.3298 211.305 46.0638 205.848 46.0713 199.416C46.0785 193.123 48.3571 187.742 52.9069 183.273C57.4568 178.803 62.878 176.572 69.1706 176.579C75.3933 176.587 80.7744 178.83 85.3138 183.31C89.9232 187.79 92.2243 193.177 92.217 199.469C92.2121 203.734 91.1238 207.613 88.9523 211.107C86.8508 214.6 84.0508 217.394 80.5525 219.487C77.1242 221.511 73.3125 222.52 69.1174 222.515Z" stroke="#EEF1F7" stroke-width="4" mask="url(#path-9-outside-1_6080_10865)"/>
<path d="M41.941 349.909C41.214 349.908 40.6254 349.318 40.6262 348.591C40.667 342.482 41.2464 337.623 42.3644 334.013C43.5161 330.403 45.1395 327.502 47.2345 325.311C49.3296 323.086 51.8802 321.047 54.8861 319.194C56.9464 317.914 58.7874 316.515 60.4092 314.998C62.0648 313.448 63.3661 311.728 64.3133 309.839C65.2606 307.916 65.7356 305.774 65.7383 303.411C65.7414 300.745 65.1197 298.432 63.8732 296.473C62.6267 294.514 60.9409 292.994 58.8159 291.911C56.7246 290.829 54.3796 290.286 51.7808 290.283C49.3845 290.28 47.1057 290.801 44.9445 291.844C42.817 292.854 41.0433 294.405 39.6234 296.496C37.0275 300.348 33.6454 304.336 28.9999 304.33L28.6321 304.33C23.4979 304.324 19.1791 299.995 20.6833 295.087C21.4565 292.563 22.5418 290.276 23.939 288.226C26.914 283.909 30.8328 280.673 35.6954 278.519C40.5917 276.365 45.993 275.291 51.8994 275.298C58.3457 275.305 64.0145 276.442 68.9057 278.709C73.8307 280.976 77.6576 284.204 80.3866 288.392C83.1493 292.547 84.5274 297.476 84.5208 303.18C84.5163 307.027 83.8879 310.469 82.6356 313.505C81.4171 316.541 79.6758 319.239 77.4118 321.599C75.1478 323.959 72.4622 326.065 69.355 327.918C66.6192 329.603 64.3728 331.355 62.6157 333.175C60.8923 334.996 59.6073 337.138 58.7607 339.6C57.9478 342.03 57.5225 345.033 57.4846 348.61C57.4838 349.337 56.8938 349.926 56.1668 349.925L41.941 349.909ZM49.397 381.508C46.3595 381.504 43.745 380.421 41.5538 378.259C39.3625 376.096 38.2686 373.462 38.2722 370.357C38.2758 367.32 39.3757 364.722 41.5719 362.565C43.7682 360.407 46.3851 359.33 49.4227 359.334C52.4265 359.337 55.024 360.42 57.2153 362.583C59.4403 364.745 60.5511 367.346 60.5476 370.383C60.5452 372.442 60.0199 374.314 58.9717 376.001C57.9572 377.687 56.6056 379.036 54.9169 380.046C53.262 381.023 51.422 381.51 49.397 381.508Z" stroke="#EEF1F7" stroke-width="4" mask="url(#path-9-outside-1_6080_10865)"/>
<path d="M276.417 143.712C275.918 143.712 275.514 143.307 275.514 142.808C275.542 138.615 275.94 135.28 276.707 132.803C277.497 130.325 278.612 128.334 280.049 126.831C281.487 125.303 283.238 123.904 285.301 122.633C286.715 121.754 287.978 120.794 289.091 119.753C290.227 118.689 291.121 117.509 291.771 116.212C292.421 114.893 292.747 113.422 292.749 111.801C292.751 109.971 292.324 108.384 291.469 107.039C290.613 105.695 289.456 104.651 287.998 103.909C286.562 103.166 284.953 102.793 283.17 102.791C281.525 102.789 279.961 103.146 278.478 103.863C277.018 104.556 275.8 105.62 274.826 107.055C273.044 109.699 270.723 112.436 267.535 112.432L267.283 112.432C263.759 112.428 260.795 109.457 261.827 106.088C262.358 104.356 263.103 102.786 264.062 101.379C266.104 98.4167 268.793 96.1962 272.13 94.7176C275.491 93.2391 279.197 92.5022 283.251 92.5069C287.675 92.512 291.565 93.2924 294.922 94.8482C298.302 96.4041 300.929 98.6192 302.802 101.494C304.698 104.345 305.643 107.728 305.639 111.642C305.636 114.283 305.205 116.645 304.345 118.729C303.509 120.812 302.314 122.664 300.76 124.283C299.206 125.903 297.363 127.349 295.231 128.62C293.353 129.776 291.811 130.979 290.605 132.228C289.423 133.478 288.541 134.947 287.96 136.638C287.402 138.305 287.11 140.366 287.084 142.821C287.083 143.32 286.679 143.724 286.18 143.723L276.417 143.712ZM281.534 165.398C279.449 165.396 277.655 164.653 276.151 163.169C274.647 161.684 273.896 159.877 273.899 157.746C273.901 155.661 274.656 153.879 276.163 152.398C277.671 150.917 279.467 150.178 281.551 150.18C283.613 150.183 285.395 150.926 286.899 152.41C288.426 153.894 289.189 155.679 289.186 157.764C289.185 159.176 288.824 160.462 288.105 161.619C287.408 162.776 286.481 163.702 285.322 164.395C284.186 165.066 282.923 165.4 281.534 165.398Z" stroke="#EEF1F7" stroke-width="4" mask="url(#path-9-outside-1_6080_10865)"/>
<path d="M1117.6 455.843H1417.73" stroke="#E1E7F2"/>
<path d="M1376.82 290.56C1376.08 290.56 1375.48 289.961 1375.48 289.221V289.221C1375.51 283.008 1376.09 278.064 1377.24 274.391C1378.42 270.717 1380.1 267.765 1382.26 265.534C1384.42 263.268 1387.05 261.191 1390.15 259.303C1392.27 257.998 1394.17 256.573 1395.85 255.029C1397.55 253.449 1398.9 251.699 1399.87 249.776C1400.84 247.819 1401.33 245.639 1401.33 243.236C1401.33 240.524 1400.68 238.172 1399.39 236.181C1398.09 234.19 1396.35 232.645 1394.15 231.547C1391.99 230.448 1389.56 229.899 1386.88 229.899C1384.4 229.899 1382.05 230.431 1379.82 231.495C1377.62 232.525 1375.79 234.104 1374.33 236.233V236.233C1371.67 240.142 1368.22 244.215 1363.49 244.215H1363C1357.69 244.215 1353.21 239.738 1354.8 234.677C1355.59 232.166 1356.7 229.887 1358.11 227.839C1361.17 223.445 1365.21 220.149 1370.23 217.952C1375.29 215.755 1380.87 214.656 1386.97 214.656C1393.63 214.656 1399.49 215.806 1404.55 218.106C1409.64 220.407 1413.6 223.685 1416.43 227.942C1419.3 232.165 1420.73 237.177 1420.74 242.979C1420.74 246.892 1420.1 250.394 1418.81 253.484C1417.56 256.573 1415.76 259.32 1413.43 261.723C1411.09 264.126 1408.32 266.272 1405.12 268.16C1402.29 269.876 1399.98 271.662 1398.16 273.515C1396.39 275.369 1395.06 277.549 1394.2 280.055C1393.36 282.527 1392.93 285.582 1392.9 289.221V289.221C1392.9 289.961 1392.3 290.56 1391.56 290.56H1376.82ZM1384.61 322.693C1381.47 322.693 1378.77 321.595 1376.5 319.398C1374.23 317.201 1373.09 314.523 1373.09 311.364C1373.09 308.275 1374.22 305.631 1376.48 303.434C1378.75 301.237 1381.45 300.138 1384.59 300.138C1387.69 300.138 1390.38 301.237 1392.65 303.434C1394.95 305.631 1396.1 308.275 1396.11 311.364C1396.11 313.459 1395.57 315.364 1394.49 317.08C1393.45 318.797 1392.05 320.17 1390.31 321.2C1388.6 322.196 1386.7 322.693 1384.61 322.693Z" fill="#EAF7FF"/>
<path d="M1384.36 315.87V454.766" stroke="#EEF1F7" stroke-width="2"/>
<path d="M1232.11 335.271C1231.58 335.271 1231.14 334.835 1231.14 334.297V334.297C1231.16 329.775 1231.59 326.178 1232.42 323.505C1233.28 320.832 1234.5 318.683 1236.07 317.059C1237.64 315.41 1239.56 313.899 1241.82 312.525C1243.36 311.576 1244.75 310.539 1245.96 309.415C1247.2 308.265 1248.18 306.991 1248.89 305.592C1249.6 304.168 1249.95 302.582 1249.95 300.833C1249.95 298.859 1249.48 297.148 1248.54 295.699C1247.6 294.25 1246.33 293.126 1244.73 292.327C1243.15 291.527 1241.39 291.127 1239.44 291.127C1237.64 291.127 1235.92 291.515 1234.3 292.289C1232.7 293.039 1231.37 294.188 1230.31 295.737V295.737C1228.37 298.582 1225.86 301.545 1222.42 301.545H1222.06C1218.19 301.545 1214.93 298.287 1216.09 294.604C1216.67 292.777 1217.47 291.119 1218.5 289.628C1220.73 286.431 1223.67 284.032 1227.32 282.433C1231 280.835 1235.06 280.035 1239.5 280.035C1244.35 280.035 1248.61 280.872 1252.3 282.546C1256 284.22 1258.88 286.606 1260.94 289.703C1263.03 292.776 1264.07 296.424 1264.07 300.646C1264.08 303.494 1263.61 306.042 1262.67 308.29C1261.76 310.539 1260.46 312.537 1258.76 314.286C1257.06 316.035 1255.04 317.596 1252.71 318.97C1250.65 320.22 1248.97 321.519 1247.65 322.868C1246.36 324.217 1245.39 325.803 1244.76 327.627C1244.15 329.426 1243.84 331.649 1243.81 334.297V334.297C1243.82 334.835 1243.38 335.271 1242.84 335.271H1232.11ZM1237.78 358.655C1235.5 358.655 1233.53 357.856 1231.88 356.257C1230.23 354.658 1229.4 352.709 1229.4 350.411C1229.4 348.162 1230.22 346.239 1231.87 344.64C1233.52 343.041 1235.49 342.242 1237.77 342.242C1240.03 342.242 1241.98 343.041 1243.63 344.64C1245.31 346.239 1246.15 348.162 1246.15 350.411C1246.15 351.935 1245.76 353.321 1244.97 354.57C1244.21 355.82 1243.2 356.819 1241.93 357.568C1240.69 358.293 1239.31 358.655 1237.78 358.655Z" fill="#EAF7FF"/>
<path d="M1237.61 353.689V454.766" stroke="#EEF1F7" stroke-width="2"/>
<path d="M1288.74 205.898C1287.66 205.898 1286.79 205.027 1286.79 203.953V203.953C1286.83 194.927 1287.69 187.747 1289.35 182.411C1291.07 177.075 1293.5 172.786 1296.64 169.545C1299.77 166.254 1303.6 163.237 1308.1 160.494C1311.19 158.599 1313.95 156.53 1316.38 154.286C1318.86 151.992 1320.81 149.449 1322.22 146.656C1323.64 143.814 1324.35 140.647 1324.34 137.156C1324.34 133.217 1323.4 129.801 1321.52 126.909C1319.64 124.016 1317.11 121.772 1313.92 120.177C1310.78 118.581 1307.25 117.783 1303.35 117.783C1299.76 117.783 1296.34 118.556 1293.1 120.102C1289.91 121.598 1287.25 123.892 1285.13 126.984C1284.96 127.228 1284.8 127.478 1284.64 127.734C1281.34 133.181 1276.65 138.578 1270.27 138.578H1266.92C1260.16 138.578 1254.51 132.916 1256.27 126.398C1257.44 122.084 1259.2 118.215 1261.56 114.791C1266.01 108.408 1271.88 103.621 1279.18 100.429C1286.52 97.2378 1294.62 95.6421 1303.49 95.6421C1313.16 95.6421 1321.67 97.3126 1329.02 100.654C1336.42 103.995 1342.17 108.757 1346.28 114.941C1350.44 121.074 1352.52 128.355 1352.53 136.782C1352.54 142.467 1351.6 147.554 1349.73 152.042C1347.91 156.53 1345.31 160.519 1341.92 164.01C1338.53 167.501 1334.5 170.617 1329.85 173.36C1325.74 175.853 1322.38 178.446 1319.75 181.139C1317.17 183.832 1315.24 186.999 1313.98 190.639C1312.77 194.229 1312.14 198.667 1312.09 203.953V203.953C1312.09 205.027 1311.22 205.898 1310.15 205.898H1288.74ZM1300.05 252.574C1295.5 252.574 1291.57 250.978 1288.27 247.786C1284.98 244.595 1283.33 240.705 1283.32 236.118C1283.32 231.63 1284.96 227.79 1288.25 224.598C1291.54 221.407 1295.47 219.811 1300.03 219.811C1304.53 219.811 1308.44 221.407 1311.73 224.598C1315.08 227.79 1316.75 231.63 1316.76 236.118C1316.76 239.159 1315.98 241.927 1314.41 244.42C1312.89 246.914 1310.87 248.909 1308.33 250.405C1305.85 251.851 1303.09 252.574 1300.05 252.574Z" fill="#EAF7FF"/>
<path d="M1301.16 244.826L1301.16 454.766" stroke="#EEF1F7" stroke-width="2"/>
<mask id="path-17-outside-2_6080_10865" maskUnits="userSpaceOnUse" x="1123.43" y="0.489746" width="303" height="384" fill="black">
<rect fill="white" x="1123.43" y="0.489746" width="303" height="384"/>
<path d="M1172.32 157.054C1170.82 157.053 1169.6 155.83 1169.6 154.324C1169.68 141.669 1170.88 131.603 1173.2 124.124C1175.59 116.646 1178.95 110.637 1183.29 106.097C1187.63 101.487 1192.91 97.2635 1199.14 93.4252C1203.41 90.7733 1207.22 87.8761 1210.58 84.7337C1214.01 81.5214 1216.71 77.9587 1218.67 74.0456C1220.63 70.0626 1221.62 65.6239 1221.62 60.7297C1221.63 55.2062 1220.34 50.4153 1217.76 46.3571C1215.17 42.2988 1211.68 39.1485 1207.28 36.906C1202.95 34.6636 1198.09 33.5393 1192.71 33.5331C1187.74 33.5273 1183.02 34.6056 1178.54 36.7679C1174.14 38.8603 1170.46 42.0723 1167.52 46.4038C1166.47 47.9604 1165.59 49.6712 1164.88 51.5361C1162.6 57.4947 1157.68 62.6483 1151.3 62.6409L1137.66 62.6251C1130.91 62.6173 1125.36 57.0028 1126.6 50.3671C1128.1 42.3444 1130.91 35.3125 1135.03 29.2712C1141.19 20.3289 1149.31 13.6262 1159.38 9.16306C1169.53 4.70006 1180.72 2.47565 1192.95 2.48981C1206.31 2.50527 1218.05 4.86112 1228.18 9.55735C1238.39 14.2537 1246.31 20.94 1251.97 29.6164C1257.69 38.2229 1260.54 48.4342 1260.53 60.2503C1260.52 68.2209 1259.22 75.3511 1256.63 81.6407C1254.1 87.9304 1250.49 93.5196 1245.8 98.4084C1241.11 103.297 1235.55 107.661 1229.11 111.499C1223.45 114.988 1218.79 118.618 1215.15 122.39C1211.58 126.161 1208.92 130.598 1207.17 135.7C1205.48 140.732 1204.6 146.954 1204.52 154.365C1204.52 155.871 1203.3 157.09 1201.79 157.089L1172.32 157.054ZM1187.77 222.515C1181.48 222.508 1176.06 220.265 1171.52 215.785C1166.98 211.305 1164.71 205.848 1164.72 199.416C1164.73 193.123 1167.01 187.742 1171.56 183.273C1176.11 178.803 1181.53 176.572 1187.82 176.579C1194.04 176.587 1199.43 178.83 1203.96 183.31C1208.57 187.79 1210.87 193.177 1210.87 199.469C1210.86 203.734 1209.77 207.613 1207.6 211.107C1205.5 214.6 1202.7 217.394 1199.2 219.487C1195.77 221.511 1191.96 222.52 1187.77 222.515Z"/>
<path d="M1160.59 349.909C1159.86 349.908 1159.28 349.318 1159.28 348.591C1159.32 342.482 1159.9 337.623 1161.02 334.013C1162.17 330.403 1163.79 327.502 1165.89 325.311C1167.98 323.086 1170.53 321.047 1173.54 319.194C1175.6 317.914 1177.44 316.515 1179.06 314.998C1180.72 313.448 1182.02 311.728 1182.96 309.839C1183.91 307.916 1184.39 305.774 1184.39 303.411C1184.39 300.745 1183.77 298.432 1182.52 296.473C1181.28 294.514 1179.59 292.994 1177.47 291.911C1175.38 290.829 1173.03 290.286 1170.43 290.283C1168.04 290.28 1165.76 290.801 1163.6 291.844C1161.47 292.854 1159.69 294.405 1158.27 296.496C1155.68 300.348 1152.3 304.336 1147.65 304.33L1147.28 304.33C1142.15 304.324 1137.83 299.995 1139.33 295.087C1140.11 292.563 1141.19 290.276 1142.59 288.226C1145.56 283.909 1149.48 280.673 1154.35 278.519C1159.24 276.365 1164.64 275.291 1170.55 275.298C1177 275.305 1182.67 276.442 1187.56 278.709C1192.48 280.976 1196.31 284.204 1199.04 288.392C1201.8 292.547 1203.18 297.476 1203.17 303.18C1203.17 307.027 1202.54 310.469 1201.29 313.505C1200.07 316.541 1198.33 319.239 1196.06 321.599C1193.8 323.959 1191.11 326.065 1188.01 327.918C1185.27 329.603 1183.02 331.355 1181.27 333.175C1179.54 334.996 1178.26 337.138 1177.41 339.6C1176.6 342.03 1176.17 345.033 1176.14 348.61C1176.13 349.337 1175.54 349.926 1174.82 349.925L1160.59 349.909ZM1168.05 381.508C1165.01 381.504 1162.4 380.421 1160.2 378.259C1158.01 376.096 1156.92 373.462 1156.92 370.357C1156.93 367.32 1158.03 364.722 1160.22 362.565C1162.42 360.407 1165.04 359.33 1168.07 359.334C1171.08 359.337 1173.67 360.42 1175.87 362.583C1178.09 364.745 1179.2 367.346 1179.2 370.383C1179.2 372.442 1178.67 374.314 1177.62 376.001C1176.61 377.687 1175.26 379.036 1173.57 380.046C1171.91 381.023 1170.07 381.51 1168.05 381.508Z"/>
<path d="M1395.07 143.712C1394.57 143.712 1394.16 143.307 1394.16 142.808C1394.19 138.615 1394.59 135.28 1395.36 132.803C1396.15 130.325 1397.26 128.334 1398.7 126.831C1400.14 125.303 1401.89 123.904 1403.95 122.633C1405.37 121.754 1406.63 120.794 1407.74 119.753C1408.88 118.689 1409.77 117.509 1410.42 116.212C1411.07 114.893 1411.4 113.422 1411.4 111.801C1411.4 109.971 1410.97 108.384 1410.12 107.039C1409.26 105.695 1408.11 104.651 1406.65 103.909C1405.21 103.166 1403.6 102.793 1401.82 102.791C1400.18 102.789 1398.61 103.146 1397.13 103.863C1395.67 104.556 1394.45 105.62 1393.48 107.055C1391.7 109.699 1389.37 112.436 1386.19 112.432L1385.93 112.432C1382.41 112.428 1379.45 109.457 1380.48 106.088C1381.01 104.356 1381.75 102.786 1382.71 101.379C1384.75 98.4167 1387.44 96.1962 1390.78 94.7176C1394.14 93.2391 1397.85 92.5022 1401.9 92.5069C1406.33 92.512 1410.22 93.2924 1413.57 94.8482C1416.95 96.4041 1419.58 98.6192 1421.45 101.494C1423.35 104.345 1424.29 107.728 1424.29 111.642C1424.29 114.283 1423.86 116.645 1423 118.729C1422.16 120.812 1420.96 122.664 1419.41 124.283C1417.86 125.903 1416.01 127.349 1413.88 128.62C1412 129.776 1410.46 130.979 1409.26 132.228C1408.07 133.478 1407.19 134.947 1406.61 136.638C1406.05 138.305 1405.76 140.366 1405.73 142.821C1405.73 143.32 1405.33 143.724 1404.83 143.723L1395.07 143.712ZM1400.18 165.398C1398.1 165.396 1396.31 164.653 1394.8 163.169C1393.3 161.684 1392.55 159.877 1392.55 157.746C1392.55 155.661 1393.31 153.879 1394.81 152.398C1396.32 150.917 1398.12 150.178 1400.2 150.18C1402.26 150.183 1404.05 150.926 1405.55 152.41C1407.08 153.894 1407.84 155.679 1407.84 157.764C1407.84 159.176 1407.47 160.462 1406.76 161.619C1406.06 162.776 1405.13 163.702 1403.97 164.395C1402.84 165.066 1401.57 165.4 1400.18 165.398Z"/>
</mask>
<path d="M1172.32 157.054C1170.82 157.053 1169.6 155.83 1169.6 154.324C1169.68 141.669 1170.88 131.603 1173.2 124.124C1175.59 116.646 1178.95 110.637 1183.29 106.097C1187.63 101.487 1192.91 97.2635 1199.14 93.4252C1203.41 90.7733 1207.22 87.8761 1210.58 84.7337C1214.01 81.5214 1216.71 77.9587 1218.67 74.0456C1220.63 70.0626 1221.62 65.6239 1221.62 60.7297C1221.63 55.2062 1220.34 50.4153 1217.76 46.3571C1215.17 42.2988 1211.68 39.1485 1207.28 36.906C1202.95 34.6636 1198.09 33.5393 1192.71 33.5331C1187.74 33.5273 1183.02 34.6056 1178.54 36.7679C1174.14 38.8603 1170.46 42.0723 1167.52 46.4038C1166.47 47.9604 1165.59 49.6712 1164.88 51.5361C1162.6 57.4947 1157.68 62.6483 1151.3 62.6409L1137.66 62.6251C1130.91 62.6173 1125.36 57.0028 1126.6 50.3671C1128.1 42.3444 1130.91 35.3125 1135.03 29.2712C1141.19 20.3289 1149.31 13.6262 1159.38 9.16306C1169.53 4.70006 1180.72 2.47565 1192.95 2.48981C1206.31 2.50527 1218.05 4.86112 1228.18 9.55735C1238.39 14.2537 1246.31 20.94 1251.97 29.6164C1257.69 38.2229 1260.54 48.4342 1260.53 60.2503C1260.52 68.2209 1259.22 75.3511 1256.63 81.6407C1254.1 87.9304 1250.49 93.5196 1245.8 98.4084C1241.11 103.297 1235.55 107.661 1229.11 111.499C1223.45 114.988 1218.79 118.618 1215.15 122.39C1211.58 126.161 1208.92 130.598 1207.17 135.7C1205.48 140.732 1204.6 146.954 1204.52 154.365C1204.52 155.871 1203.3 157.09 1201.79 157.089L1172.32 157.054ZM1187.77 222.515C1181.48 222.508 1176.06 220.265 1171.52 215.785C1166.98 211.305 1164.71 205.848 1164.72 199.416C1164.73 193.123 1167.01 187.742 1171.56 183.273C1176.11 178.803 1181.53 176.572 1187.82 176.579C1194.04 176.587 1199.43 178.83 1203.96 183.31C1208.57 187.79 1210.87 193.177 1210.87 199.469C1210.86 203.734 1209.77 207.613 1207.6 211.107C1205.5 214.6 1202.7 217.394 1199.2 219.487C1195.77 221.511 1191.96 222.52 1187.77 222.515Z" stroke="#EEF1F7" stroke-width="4" mask="url(#path-17-outside-2_6080_10865)"/>
<path d="M1160.59 349.909C1159.86 349.908 1159.28 349.318 1159.28 348.591C1159.32 342.482 1159.9 337.623 1161.02 334.013C1162.17 330.403 1163.79 327.502 1165.89 325.311C1167.98 323.086 1170.53 321.047 1173.54 319.194C1175.6 317.914 1177.44 316.515 1179.06 314.998C1180.72 313.448 1182.02 311.728 1182.96 309.839C1183.91 307.916 1184.39 305.774 1184.39 303.411C1184.39 300.745 1183.77 298.432 1182.52 296.473C1181.28 294.514 1179.59 292.994 1177.47 291.911C1175.38 290.829 1173.03 290.286 1170.43 290.283C1168.04 290.28 1165.76 290.801 1163.6 291.844C1161.47 292.854 1159.69 294.405 1158.27 296.496C1155.68 300.348 1152.3 304.336 1147.65 304.33L1147.28 304.33C1142.15 304.324 1137.83 299.995 1139.33 295.087C1140.11 292.563 1141.19 290.276 1142.59 288.226C1145.56 283.909 1149.48 280.673 1154.35 278.519C1159.24 276.365 1164.64 275.291 1170.55 275.298C1177 275.305 1182.67 276.442 1187.56 278.709C1192.48 280.976 1196.31 284.204 1199.04 288.392C1201.8 292.547 1203.18 297.476 1203.17 303.18C1203.17 307.027 1202.54 310.469 1201.29 313.505C1200.07 316.541 1198.33 319.239 1196.06 321.599C1193.8 323.959 1191.11 326.065 1188.01 327.918C1185.27 329.603 1183.02 331.355 1181.27 333.175C1179.54 334.996 1178.26 337.138 1177.41 339.6C1176.6 342.03 1176.17 345.033 1176.14 348.61C1176.13 349.337 1175.54 349.926 1174.82 349.925L1160.59 349.909ZM1168.05 381.508C1165.01 381.504 1162.4 380.421 1160.2 378.259C1158.01 376.096 1156.92 373.462 1156.92 370.357C1156.93 367.32 1158.03 364.722 1160.22 362.565C1162.42 360.407 1165.04 359.33 1168.07 359.334C1171.08 359.337 1173.67 360.42 1175.87 362.583C1178.09 364.745 1179.2 367.346 1179.2 370.383C1179.2 372.442 1178.67 374.314 1177.62 376.001C1176.61 377.687 1175.26 379.036 1173.57 380.046C1171.91 381.023 1170.07 381.51 1168.05 381.508Z" stroke="#EEF1F7" stroke-width="4" mask="url(#path-17-outside-2_6080_10865)"/>
<path d="M1395.07 143.712C1394.57 143.712 1394.16 143.307 1394.16 142.808C1394.19 138.615 1394.59 135.28 1395.36 132.803C1396.15 130.325 1397.26 128.334 1398.7 126.831C1400.14 125.303 1401.89 123.904 1403.95 122.633C1405.37 121.754 1406.63 120.794 1407.74 119.753C1408.88 118.689 1409.77 117.509 1410.42 116.212C1411.07 114.893 1411.4 113.422 1411.4 111.801C1411.4 109.971 1410.97 108.384 1410.12 107.039C1409.26 105.695 1408.11 104.651 1406.65 103.909C1405.21 103.166 1403.6 102.793 1401.82 102.791C1400.18 102.789 1398.61 103.146 1397.13 103.863C1395.67 104.556 1394.45 105.62 1393.48 107.055C1391.7 109.699 1389.37 112.436 1386.19 112.432L1385.93 112.432C1382.41 112.428 1379.45 109.457 1380.48 106.088C1381.01 104.356 1381.75 102.786 1382.71 101.379C1384.75 98.4167 1387.44 96.1962 1390.78 94.7176C1394.14 93.2391 1397.85 92.5022 1401.9 92.5069C1406.33 92.512 1410.22 93.2924 1413.57 94.8482C1416.95 96.4041 1419.58 98.6192 1421.45 101.494C1423.35 104.345 1424.29 107.728 1424.29 111.642C1424.29 114.283 1423.86 116.645 1423 118.729C1422.16 120.812 1420.96 122.664 1419.41 124.283C1417.86 125.903 1416.01 127.349 1413.88 128.62C1412 129.776 1410.46 130.979 1409.26 132.228C1408.07 133.478 1407.19 134.947 1406.61 136.638C1406.05 138.305 1405.76 140.366 1405.73 142.821C1405.73 143.32 1405.33 143.724 1404.83 143.723L1395.07 143.712ZM1400.18 165.398C1398.1 165.396 1396.31 164.653 1394.8 163.169C1393.3 161.684 1392.55 159.877 1392.55 157.746C1392.55 155.661 1393.31 153.879 1394.81 152.398C1396.32 150.917 1398.12 150.178 1400.2 150.18C1402.26 150.183 1404.05 150.926 1405.55 152.41C1407.08 153.894 1407.84 155.679 1407.84 157.764C1407.84 159.176 1407.47 160.462 1406.76 161.619C1406.06 162.776 1405.13 163.702 1403.97 164.395C1402.84 165.066 1401.57 165.4 1400.18 165.398Z" stroke="#EEF1F7" stroke-width="4" mask="url(#path-17-outside-2_6080_10865)"/>
</svg>
