<svg xmlns="http://www.w3.org/2000/svg" width="24px" height="24px" viewBox="0 0 24 24" fill="none" transform="rotate(0) scale(1, 1)"><g clip-path="url(#clip0_819_884)"><path d="M18.3119 3.37051C20.8293 3.36368 22.7283 4.6148 23.57 6.57878C23.9836 7.53147 24.1033 8.58584 23.9138 9.60693C23.7244 10.628 23.2344 11.5694 22.5065 12.3105C20.2398 14.6055 17.9716 16.9005 15.6555 19.1431C14.1614 20.5969 12.3307 21.0008 10.355 20.3555C8.3792 19.7102 7.16458 18.2852 6.79997 16.2377C6.49612 14.5175 6.95189 12.9574 8.18854 11.7002C10.4502 9.39936 12.7313 7.11754 15.0319 4.8547C16.0399 3.8541 17.2796 3.37734 18.3119 3.37051ZM10.4697 14.6435C10.8508 13.4872 11.6139 12.4948 12.6338 11.8292C13.7504 12.5937 14.51 13.592 14.8618 14.875C15.2135 16.158 15.0676 17.3993 14.4819 18.702C15.6593 17.5056 16.7456 16.4002 17.8166 15.3123L11.9836 9.4811C11.9578 9.49288 11.9337 9.50821 11.9122 9.52665C10.9186 10.5174 9.91667 11.5005 8.93752 12.5056C8.51785 12.93 8.2099 13.4517 8.04118 14.024C9.01728 14.1675 9.26871 14.1766 10.4697 14.6435ZM12.0269 19.1408C12.232 17.2383 9.62497 14.8583 7.849 15.2865C7.64466 17.0501 9.28543 19.1644 11.0211 19.339C10.4458 18.6952 10.0296 17.9255 9.80576 17.0918C10.5259 17.7941 11.1222 18.62 12.0269 19.1408ZM22.1464 6.36545C20.8376 4.16385 17.645 3.79033 15.7596 5.63133C14.9096 6.46186 14.188 7.12159 13.3425 7.95592C13.1906 8.10775 13.0068 8.31653 12.7424 8.56781L13.3957 9.24196L16.1979 6.43302C16.895 5.71835 17.8418 5.30101 18.8398 5.26845C20.0826 5.20619 21.1643 5.62146 22.1464 6.36545ZM12.3588 16.3865L12.5753 15.1218C13.0858 16.1702 13.1731 17.2869 13.2445 18.4621C14.2898 16.9567 14.0528 14.566 12.6209 13.2679C12.1279 13.7051 11.818 14.2548 11.5627 14.8621C11.3949 15.2569 11.3789 15.3343 11.7101 15.6426C11.9395 15.8528 12.1484 16.152 12.3588 16.3896V16.3865Z" fill="#000000"/><path d="M6.16974 16.8421C4.58063 15.2918 2.85782 13.7386 1.28694 12.0441C-0.536131 10.074 -0.384207 6.91966 1.50115 4.97466C3.40019 3.01523 6.53056 2.77306 8.59291 4.54269C9.60472 5.40966 10.4494 6.47099 11.3822 7.45791L10.6887 8.14117C9.90248 7.34783 9.11856 6.56057 8.3392 5.77027C7.75549 5.16625 7.00769 4.74612 6.18797 4.56167C4.51682 4.18208 2.60487 4.97466 1.81108 6.40418C2.14986 6.19313 2.45219 5.98132 2.77579 5.80671C4.33224 4.96403 6.51764 5.01793 7.93432 6.55298C8.62785 7.30456 9.37759 8.00224 10.1053 8.72346C9.36696 9.47124 8.6552 10.2069 7.92825 10.9251C6.63083 12.2096 5.94641 13.7461 6.00642 15.5826C6.02162 16.0449 6.12416 16.5035 6.16974 16.8421Z" fill="#000000"/></g><defs><clipPath id="clip0_819_884"><rect width="24" height="24" fill="#000000"/></clipPath></defs></svg>